<svg id="Capa_1" xmlns="http://www.w3.org/2000/svg" xmlns:xlink="http://www.w3.org/1999/xlink" x="0px" y="0px" viewBox="0 0 490 490" xml:space="preserve"><g><path d="M17.346,400.245h160.7l-7.5,52.427h-34.924v24.988h218.756v-24.988h-34.924l-7.5-52.427h160.707 c9.563,0,17.339-7.776,17.339-17.331v-38.707v-7.656V44.222c0-9.555-7.776-17.331-17.339-17.331H270.309V12.34h-50.611v14.55 H17.346C7.783,26.89,0,34.666,0,44.222V336.55v7.656v38.707C0,392.469,7.783,400.245,17.346,400.245z M186.015,452.672 l7.499-52.427h102.971l7.499,52.427H186.015z M235.011,27.653h19.985v264.993h-19.985V27.653z M15.312,44.222 c0-1.092,0.935-2.019,2.034-2.019h202.352v265.756h50.611V42.203h202.352c1.099,0,2.026,0.927,2.026,2.019V336.55H15.312V44.222z  M15.312,351.862h459.375v31.051c0,1.092-0.927,2.019-2.026,2.019H309.764H180.236H17.346c-1.099,0-2.034-0.927-2.034-2.019 V351.862z"></path><path d="M78.417,307.958h50.611v-124.99H78.417V307.958z M93.729,198.281h19.986v94.365H93.729V198.281z"></path><path d="M149.058,307.958h50.611V122.025h-50.611V307.958z M164.37,137.338h19.986v155.308H164.37V137.338z"></path><path d="M290.332,307.958h50.611V68.895h-50.611V307.958z M305.644,84.208h19.986v208.438h-19.986V84.208z"></path><path d="M360.973,308.347h50.611V158.983h-50.611V308.347z M376.285,174.296h19.986v118.739h-19.986V174.296z"></path></g><g></g><g></g><g></g><g></g><g></g><g></g><g></g><g></g><g></g><g></g><g></g><g></g><g></g><g></g><g></g></svg>