<svg xmlns="http://www.w3.org/2000/svg" viewBox="0 0 195.86 195.86"><defs><style>.cls-1{fill:#d1d5db;}.cls-2{fill:#6b7280;}.cls-3{fill:#fff;}</style></defs><g id="Layer_2" data-name="Layer 2"><g id="Layer_1-2" data-name="Layer 1"><circle class="cls-1" cx="97.93" cy="97.93" r="97.93"/><circle class="cls-2" cx="97.93" cy="97.93" r="78.47"/><path class="cls-3" d="M97.93,176.9a79,79,0,1,1,79-79A79.06,79.06,0,0,1,97.93,176.9ZM97.93,20a78,78,0,1,0,78,78A78.06,78.06,0,0,0,97.93,20Z"/><path class="cls-3" d="M73.28,77.88a17.94,17.94,0,0,1,3-9.55,23.24,23.24,0,0,1,8.82-8,27.76,27.76,0,0,1,13.54-3.18,28.89,28.89,0,0,1,12.7,2.66,20.51,20.51,0,0,1,8.5,7.21,17.7,17.7,0,0,1,3,9.92,15.36,15.36,0,0,1-1.71,7.39,22.79,22.79,0,0,1-4.07,5.48q-2.36,2.3-8.45,7.76a32.46,32.46,0,0,0-2.7,2.7,11.06,11.06,0,0,0-1.51,2.13,9.79,9.79,0,0,0-.77,1.94c-.19.64-.46,1.77-.82,3.39q-.95,5.16-5.9,5.16a6,6,0,0,1-4.34-1.68,6.62,6.62,0,0,1-1.76-5,17.57,17.57,0,0,1,4.71-12.57,77,77,0,0,1,5.75-5.48c2.12-1.86,3.65-3.25,4.59-4.19a14.83,14.83,0,0,0,2.38-3.15,7.7,7.7,0,0,0,1-3.77,8.77,8.77,0,0,0-3-6.7,10.78,10.78,0,0,0-7.61-2.72c-3.63,0-6.31.91-8,2.75a21.9,21.9,0,0,0-4.36,8.11q-1.69,5.59-6.4,5.6a6.28,6.28,0,0,1-4.69-2A6,6,0,0,1,73.28,77.88Zm24.2,54.35a7.79,7.79,0,0,1-5.28-2,6.87,6.87,0,0,1-2.26-5.48,7,7,0,0,1,2.19-5.25,7.33,7.33,0,0,1,5.35-2.14,7.29,7.29,0,0,1,7.39,7.39,6.91,6.91,0,0,1-2.23,5.46A7.55,7.55,0,0,1,97.48,132.23Z"/></g></g></svg>