<svg id="Capa_1" xmlns="http://www.w3.org/2000/svg" xmlns:xlink="http://www.w3.org/1999/xlink" x="0px" y="0px" viewBox="0 0 490 490" xml:space="preserve"><g id="Business_1_Bold_2_"><path d="M444.124,249.846c-25.342,0-45.876,20.534-45.876,45.876c0,5.865,1.21,11.438,3.216,16.583l-62.613,54.65 c-6.661-3.767-14.241-6.094-22.448-6.094c-10.933,0-20.825,3.981-28.711,10.351l-104.263-65.599c0.705-3.2,1.133-6.492,1.133-9.892 c0-25.342-20.534-45.876-45.876-45.876s-45.876,20.534-45.876,45.876c0,8.713,2.572,16.783,6.783,23.719l-37.286,44.59 c-5.114-1.975-10.612-3.154-16.43-3.154C20.534,360.862,0,381.411,0,406.738c0,25.342,20.534,45.876,45.876,45.876 s45.876-20.534,45.876-45.876c0-8.315-2.389-16.002-6.248-22.724l37.837-45.233c4.823,1.715,9.922,2.818,15.343,2.818 c10.78,0,20.565-3.874,28.389-10.091l104.462,65.721c-0.643,3.078-1.011,6.248-1.011,9.509c0,25.342,20.534,45.876,45.876,45.876 c25.342,0,45.876-20.534,45.876-45.876c0-5.926-1.21-11.546-3.262-16.752l62.521-54.558c6.692,3.813,14.332,6.171,22.586,6.171 c25.342,0,45.876-20.534,45.876-45.876C490,270.396,469.466,249.846,444.124,249.846z"></path><path d="M444.124,37.386c-25.342,0-45.876,20.534-45.876,45.876c0,5.865,1.21,11.438,3.216,16.583l-62.613,54.65 c-6.661-3.767-14.241-6.094-22.448-6.094c-10.933,0-20.825,3.981-28.711,10.351L183.428,93.154c0.705-3.2,1.133-6.493,1.133-9.892 c0-25.342-20.534-45.876-45.876-45.876S92.809,57.919,92.809,83.262c0,8.713,2.572,16.783,6.783,23.719l-37.286,44.59 c-5.114-1.975-10.627-3.17-16.43-3.17C20.534,148.401,0,168.95,0,194.293c0,25.342,20.534,45.876,45.876,45.876 s45.876-20.534,45.876-45.876c0-8.315-2.389-16.002-6.248-22.724l37.837-45.233c4.823,1.7,9.938,2.817,15.343,2.817 c10.78,0,20.565-3.874,28.389-10.091l104.462,65.721c-0.643,3.078-1.011,6.247-1.011,9.509c0,25.342,20.534,45.876,45.876,45.876 c25.342,0,45.876-20.534,45.876-45.876c0-5.926-1.21-11.546-3.262-16.752l62.521-54.559c6.692,3.813,14.332,6.171,22.586,6.171 c25.342,0,45.876-20.549,45.876-45.876C490,57.935,469.466,37.386,444.124,37.386z"></path></g><g></g><g></g><g></g><g></g><g></g><g></g><g></g><g></g><g></g><g></g><g></g><g></g><g></g><g></g><g></g></svg>