<svg id="Layer_1" xmlns="http://www.w3.org/2000/svg" xmlns:xlink="http://www.w3.org/1999/xlink" x="0px" y="0px" viewBox="0 0 512 512" xml:space="preserve"><g><g><path d="M488.149,90.104h-73.143c-4.391,0-7.95,3.56-7.95,7.95s3.56,7.95,7.95,7.95h73.143c4.384,0,7.95,3.566,7.95,7.95v29.151 H304.232v-37.101h57.772c4.391,0,7.95-3.56,7.95-7.95s-3.56-7.95-7.95-7.95h-57.772V63.072c0-13.152-10.699-23.851-23.851-23.851 H255.47v-12.19c0-13.152-10.699-23.851-23.851-23.851H72.613c-13.152,0-23.851,10.699-23.851,23.851v12.19H23.851 C10.699,39.222,0,49.921,0,63.072v143.106c0,4.391,3.56,7.95,7.95,7.95s7.95-3.56,7.95-7.95V63.072c0-4.384,3.566-7.95,7.95-7.95 h24.911v128.265h-11.13c-4.391,0-7.95,3.56-7.95,7.95s3.56,7.95,7.95,7.95H266.6c4.391,0,7.95-3.56,7.95-7.95 s-3.56-7.95-7.95-7.95h-11.13V55.122h24.911c4.384,0,7.95,3.566,7.95,7.95v421.896c0,4.384-3.566,7.95-7.95,7.95H23.851 c-4.384,0-7.95-3.566-7.95-7.95V263.42c0-4.391-3.56-7.95-7.95-7.95S0,259.029,0,263.42v221.549 c0,13.152,10.699,23.851,23.851,23.851h256.53c13.152,0,23.851-10.699,23.851-23.851V322.253h183.917 c13.152,0,23.851-10.699,23.851-23.851V113.954C512,100.803,501.301,90.104,488.149,90.104z M239.569,183.387H64.663V27.031 c0-4.384,3.566-7.95,7.95-7.95h159.006c4.384,0,7.95,3.566,7.95,7.95V183.387z M496.099,298.402c0,4.384-3.566,7.95-7.95,7.95 H304.232V201.408h191.867V298.402z M496.099,185.507H304.232v-26.501h191.867V185.507z"></path></g></g><g><g><path d="M448.928,272.431H347.164c-4.391,0-7.95,3.56-7.95,7.95s3.56,7.95,7.95,7.95h101.764c4.391,0,7.95-3.56,7.95-7.95 S453.318,272.431,448.928,272.431z"></path></g></g><g><g><path d="M246.46,217.308H57.772c-13.152,0-23.851,10.699-23.851,23.851v57.242c0,13.152,10.699,23.851,23.851,23.851H246.46 c13.152,0,23.851-10.699,23.851-23.851v-57.242C270.311,228.007,259.612,217.308,246.46,217.308z M254.41,298.402 c0,4.384-3.566,7.95-7.95,7.95H57.772c-4.384,0-7.95-3.566-7.95-7.95v-57.242c0-4.384,3.566-7.95,7.95-7.95H246.46 c4.384,0,7.95,3.566,7.95,7.95V298.402z"></path></g></g><g><g><path d="M75.793,346.634c-17.243,0-31.271,14.029-31.271,31.271s14.029,31.271,31.271,31.271s31.271-14.029,31.271-31.271 S93.036,346.634,75.793,346.634z M75.793,393.275c-8.475,0-15.371-6.896-15.371-15.371s6.896-15.371,15.371-15.371 s15.371,6.896,15.371,15.371S84.268,393.275,75.793,393.275z"></path></g></g><g><g><path d="M228.439,346.634c-17.243,0-31.271,14.029-31.271,31.271s14.029,31.271,31.271,31.271 c17.243,0,31.271-14.029,31.271-31.271S245.682,346.634,228.439,346.634z M228.439,393.275c-8.475,0-15.371-6.896-15.371-15.371 s6.896-15.371,15.371-15.371c8.475,0,15.371,6.896,15.371,15.371S236.914,393.275,228.439,393.275z"></path></g></g><g><g><path d="M152.116,346.634c-17.243,0-31.271,14.029-31.271,31.271s14.029,31.271,31.271,31.271 c17.243,0,31.271-14.029,31.271-31.271S169.359,346.634,152.116,346.634z M152.116,393.275c-8.475,0-15.371-6.896-15.371-15.371 s6.896-15.371,15.371-15.371c8.475,0,15.371,6.896,15.371,15.371S160.591,393.275,152.116,393.275z"></path></g></g><g><g><path d="M75.793,418.716c-17.243,0-31.271,14.029-31.271,31.271c0,17.243,14.029,31.271,31.271,31.271 s31.271-14.029,31.271-31.271C107.064,432.745,93.036,418.716,75.793,418.716z M75.793,465.358 c-8.475,0-15.371-6.896-15.371-15.371c0-8.475,6.896-15.371,15.371-15.371s15.371,6.896,15.371,15.371 C91.164,458.463,84.268,465.358,75.793,465.358z"></path></g></g><g><g><path d="M228.439,418.716c-17.243,0-31.271,14.029-31.271,31.271c0,17.243,14.029,31.271,31.271,31.271 c17.243,0,31.271-14.029,31.271-31.271C259.71,432.745,245.682,418.716,228.439,418.716z M228.439,465.358 c-8.475,0-15.371-6.896-15.371-15.371c0-8.475,6.896-15.371,15.371-15.371c8.475,0,15.371,6.896,15.371,15.371 C243.81,458.463,236.914,465.358,228.439,465.358z"></path></g></g><g><g><path d="M152.116,418.716c-17.243,0-31.271,14.029-31.271,31.271c0,17.243,14.029,31.271,31.271,31.271 c17.243,0,31.271-14.029,31.271-31.271C183.387,432.745,169.359,418.716,152.116,418.716z M152.116,465.358 c-8.475,0-15.371-6.896-15.371-15.371c0-8.475,6.896-15.371,15.371-15.371c8.475,0,15.371,6.896,15.371,15.371 C167.487,458.463,160.591,465.358,152.116,465.358z"></path></g></g><g><g><path d="M160.596,39.222h-59.362c-4.391,0-7.95,3.56-7.95,7.95c0,4.391,3.56,7.95,7.95,7.95h59.362c4.391,0,7.95-3.56,7.95-7.95 C168.547,42.781,164.987,39.222,160.596,39.222z"></path></g></g><g><g><path d="M202.998,90.104H101.234c-4.391,0-7.95,3.56-7.95,7.95s3.56,7.95,7.95,7.95h101.764c4.391,0,7.95-3.56,7.95-7.95 S207.389,90.104,202.998,90.104z"></path></g></g><g><g><path d="M202.998,143.106H101.234c-4.391,0-7.95,3.56-7.95,7.95s3.56,7.95,7.95,7.95h101.764c4.391,0,7.95-3.56,7.95-7.95 S207.389,143.106,202.998,143.106z"></path></g></g><g></g><g></g><g></g><g></g><g></g><g></g><g></g><g></g><g></g><g></g><g></g><g></g><g></g><g></g><g></g></svg>