<svg id="Layer_1" xmlns="http://www.w3.org/2000/svg" xmlns:xlink="http://www.w3.org/1999/xlink" x="0px" y="0px" viewBox="0 0 490 490" xml:space="preserve"><g><g><g><path d="M397.5,182.5h-305v55h305V182.5z M167.5,222.5h-60v-25h60V222.5z M237.5,222.5h-55v-25h55V222.5z M317.5,222.5h-65v-25 h65V222.5z M382.5,222.5h-50v-25h50V222.5z"></path><rect x="180" y="52.5" width="30" height="15"></rect><rect x="280" y="52.5" width="30" height="15"></rect><path d="M447.5,462.5v-295h35V30c0-9.649-7.851-17.5-17.5-17.5H25c-9.649,0-17.5,7.851-17.5,17.5v137.5h35v295H0v15h490v-15 H447.5z M22.5,152.5v-85H110v-15H22.5V30c0-1.355,1.145-2.5,2.5-2.5h112.5V120h15V27.5h85V120h15V27.5h85V120h15V27.5H465 c1.355,0,2.5,1.145,2.5,2.5v22.5H380v15h87.5v85H22.5z M382.5,462.5h-275v-30h275V462.5z M382.5,417.5h-275v-45h275V417.5z  M382.5,357.5h-275v-45h275V357.5z M382.5,297.5h-275v-30h275V297.5z M432.5,462.5h-35v-210h-305v210h-35v-295h375V462.5z"></path></g></g></g><g></g><g></g><g></g><g></g><g></g><g></g><g></g><g></g><g></g><g></g><g></g><g></g><g></g><g></g><g></g></svg>